# xmcd
#
# Track frame offsets: 
#        150
#        15952
#        30405
#        44044
#        61079
#        77444
#        93474
#        110345
#        126938
#        143473
#        160807
#        177047
#        193842
#        208664
#        223027
#        242536
#        259917
#        277102
#        292429
#        310370
#
# Disc length: 4380 seconds
#
# Revision: 2
# Processed by: cddbd v1.5.2PL0 Copyright (c) Steve Scherf et al.
# Submitted via: ExactAudioCopyFreeDBPlugin 1.0
#
DISCID=22111a14
DTITLE=Grupo Bryndis - La Historia
DYEAR=2008
DGENRE=Cumbia
TTITLE0=Te Juro Que te Amo
TTITLE1=Otro Ocupa Mi Lugar
TTITLE2=Te Esperare
TTITLE3=amor Prohibido
TTITLE4=Entre Tu Y Yo
TTITLE5=Tu Traicion
TTITLE6=Mi Verdadero Amor
TTITLE7=Olvidemos Nustro Orgullo
TTITLE8=Volvamos A Empezar
TTITLE9=Pagando Mi Pasado
TTITLE10=Por Que Me Enamore
TTITLE11=Vas A Sufrir
TTITLE12=Se Marcho
TTITLE13=Quizaz Si Quizaz No
TTITLE14=La Ultima Cancion
TTITLE15=Por Muchas Razones Te Quiero
TTITLE16=Con Tu Amor
TTITLE17=Deja Que
TTITLE18=Como Olvidar
TTITLE19=La Chica Del Este
EXTD=
EXTT0=
EXTT1=
EXTT2=
EXTT3=
EXTT4=
EXTT5=
EXTT6=
EXTT7=
EXTT8=
EXTT9=
EXTT10=
EXTT11=
EXTT12=
EXTT13=
EXTT14=
EXTT15=
EXTT16=
EXTT17=
EXTT18=
EXTT19=
PLAYORDER=
